<svg width="200" height="40" viewBox="0 0 200 40" fill="none" xmlns="http://www.w3.org/2000/svg">
<g clip-path="url(#clip0_2120_1877)">
<path d="M27.5908 32.5199C27.5908 36.6449 24.2226 40 20.0815 40C15.9404 40 12.5722 36.6449 12.5722 32.5199V27.4837H7.51639C3.37528 27.4837 0.00708008 24.1286 0.00708008 20.0035C0.00708008 15.8785 3.37528 12.5234 7.51639 12.5234C11.6575 12.5234 15.0257 15.8785 15.0257 20.0035V25.0468H20.0815C22.8754 25.0468 25.1445 22.7865 25.1445 20.0035V14.9603H20.0815C15.9404 14.9603 12.5722 11.6052 12.5722 7.48013C12.5722 3.35511 15.9404 0 20.0815 0C24.2226 0 27.5908 3.35511 27.5908 7.48013V12.5234H32.6467C36.7878 12.5234 40.156 15.8785 40.156 20.0035C40.156 24.1286 36.7878 27.4837 32.6467 27.4837C29.8599 27.4837 27.5908 29.744 27.5908 32.5199ZM25.1445 32.5269C25.1445 28.4019 28.5127 25.0468 32.6538 25.0468C35.4405 25.0468 37.7096 22.7794 37.7096 20.0035C37.7096 17.2276 35.4405 14.9603 32.6467 14.9603H27.5908V20.0035C27.5908 24.1286 24.2226 27.4837 20.0815 27.4837H15.0186V32.5199C15.0186 35.3028 17.2877 37.5631 20.0815 37.5631C22.8754 37.5631 25.1445 35.3028 25.1445 32.5269ZM7.5093 14.9532C4.71547 14.9532 2.44636 17.2135 2.44636 19.9965C2.44636 22.7794 4.71547 25.0397 7.5093 25.0397H12.5722V19.9965C12.5722 17.2135 10.3031 14.9532 7.5093 14.9532ZM20.0815 2.43687C17.2877 2.43687 15.0186 4.69716 15.0186 7.48013C15.0186 10.2631 17.2877 12.5234 20.0815 12.5234H25.1445V7.48013C25.1445 4.69716 22.8754 2.43687 20.0815 2.43687Z" fill="white"/>
<path d="M53.799 3.97669H48.105V19.7493H51.3385V14.1762H53.8912C58.7627 14.1762 61.1381 12.5446 61.1381 9.18241C61.1381 7.03514 60.3581 5.60127 58.7627 4.79604C57.3232 4.06851 55.4512 3.96963 53.799 3.96963V3.97669ZM54.0968 11.8241H51.3385V6.35705H53.8699C55.9192 6.35705 57.8125 6.70316 57.8125 9.21067C57.8125 11.5275 55.827 11.8241 54.1039 11.8241H54.0968Z" fill="white"/>
<path d="M68.0092 3.97669H64.7828V19.7493H68.0092V13.1167H76.0858V19.7493H79.3122V3.97669H76.0858V10.6516H68.0092V3.97669Z" fill="white"/>
<path d="M89.8351 3.97669C88.8991 3.97669 88.0695 4.54176 87.7291 5.41056L82.0989 19.7563H85.3891L86.5662 16.5425H93.1111V16.5637L94.2882 19.7563H97.784L92.1964 5.58008C91.8135 4.60533 90.8846 3.97669 89.8351 3.97669ZM87.4809 14.0491L87.4951 13.9996L89.8351 7.65672L92.1893 14.042H87.4809V14.0491Z" fill="white"/>
<path d="M111.441 12.8907C113.441 12.1067 114.497 10.6728 114.497 8.75155C114.497 5.36112 112.264 3.97669 106.775 3.97669H101.216V19.7493H104.506V13.5405H108.13V13.5617L111.512 19.7493H115.171L111.399 12.9048L111.434 12.8907H111.441ZM107.321 11.1884H104.513V6.35706H107.158C109.86 6.35706 111.115 7.12697 111.115 8.77274C111.115 10.4185 109.874 11.1884 107.321 11.1884Z" fill="white"/>
<path d="M123.616 3.97669H118.88V19.7493H121.872V7.72029L121.936 7.86156L126.056 16.5425H129.282L133.437 7.72029V19.7493H136.43V3.97669H131.65L127.694 13.1662L127.658 13.0955L123.616 3.97669Z" fill="white"/>
<path d="M147.477 3.97669C146.541 3.97669 145.719 4.54176 145.371 5.41056L139.741 19.7563H143.031L144.208 16.5425H150.753V16.5637L151.931 19.7563H155.426L149.839 5.58008C149.456 4.60533 148.527 3.97669 147.477 3.97669ZM145.123 14.0491L145.137 13.9996L147.477 7.65672L149.832 14.042H145.123V14.0491Z" fill="white"/>
<path d="M162.085 3.97669H158.865V19.7493H170.743V17.2841H162.085V3.97669Z" fill="white"/>
<path d="M176.735 10.581L172.019 3.97669H168.048L175.068 13.6112V19.7493H178.295V13.6535L178.302 13.6465L185.457 3.97669H181.578L176.763 10.6233L176.735 10.581Z" fill="white"/>
<path d="M194.313 10.4891L192.122 10.1148C190.604 9.83931 189.768 9.13297 189.768 8.11584C189.768 7.45895 190.136 6.92213 190.831 6.56896C191.406 6.2723 192.186 6.1169 193.03 6.1169C193.646 6.1169 194.54 6.20872 195.299 6.66078C196.029 7.09165 196.454 7.73442 196.582 8.58909H199.695C199.525 5.7496 196.781 3.69416 193.164 3.69416C191.512 3.69416 189.881 4.08971 188.697 4.78898C187.286 5.6154 186.541 6.80911 186.541 8.25005C186.541 9.90994 187.406 12.0431 191.512 12.8059L193.632 13.1803C195.249 13.4628 196.745 13.922 196.745 15.377C196.745 17.0298 195.001 17.6161 193.37 17.6161C190.987 17.6161 189.619 16.599 189.286 14.6H186.173C186.485 17.9551 189.193 20.0389 193.256 20.0389C196.504 20.0389 199.993 18.5343 199.993 15.2216C199.993 11.9089 196.745 10.9059 194.306 10.4891H194.313Z" fill="white"/>
<path d="M50.5371 23.7048H48.0836V36.0657H56.9898V34.0667H50.5371V23.7048Z" fill="white"/>
<path d="M65.1871 23.7048C64.4354 23.7048 63.776 24.1568 63.4994 24.849L59.0959 36.0657H61.6203L62.6131 33.3675H67.6618L68.6687 36.0657H71.3562L66.9314 24.8773C66.6478 24.1568 65.9671 23.6977 65.1871 23.6977V23.7048ZM66.9102 31.3827H63.3434L65.1232 26.5725L66.9173 31.3827H66.9102Z" fill="white"/>
<path d="M81.6451 29.4897C82.3045 29.0235 82.964 28.0699 82.964 26.9045C82.964 24.7784 81.3756 23.6977 78.2485 23.6977H73.3203V36.0657H78.5676C81.6805 36.0657 83.4604 34.7166 83.4604 32.3574C83.4604 31.0083 82.8647 30.0689 81.6451 29.4897ZM78.4542 28.7833H75.7667V25.6189H78.4542C79.7376 25.6189 80.468 26.1769 80.468 27.1446C80.468 28.5008 79.3689 28.7833 78.4542 28.7833ZM75.7667 30.6198H78.5251C80.1631 30.6198 80.9289 31.1708 80.9289 32.3574C80.9289 33.5441 80.1418 34.1444 78.6456 34.1444H75.7667V30.6127V30.6198Z" fill="white"/>
<path d="M91.9411 23.4858C87.8284 23.4858 85.1764 25.9933 85.1764 29.8782C85.1764 33.763 87.8284 36.2917 91.9411 36.2917C96.0539 36.2917 98.7059 33.7771 98.7059 29.8782C98.7059 25.9792 96.0539 23.4858 91.9411 23.4858ZM91.9411 34.3352C89.4877 34.3352 87.9064 32.5834 87.9064 29.8782C87.9064 27.1729 89.4877 25.4423 91.9411 25.4423C94.3946 25.4423 95.9759 27.187 95.9759 29.8782C95.9759 32.5693 94.3946 34.3352 91.9411 34.3352Z" fill="white"/>
<path d="M111.143 27.3071C111.143 24.7431 109.427 23.6977 105.215 23.6977H100.947V36.0657H103.45V30.9518H105.563C105.768 30.9518 105.988 30.9518 106.187 30.9377L108.91 36.0092L108.938 36.0657H111.753L108.733 30.5068C110.328 29.9559 111.136 28.8822 111.136 27.3141L111.143 27.3071ZM108.591 27.3212C108.591 28.5785 107.782 29.0447 105.612 29.0447H103.443V25.6119H105.534C107.463 25.6119 108.584 25.8944 108.584 27.3212H108.591Z" fill="white"/>
<path d="M119.667 23.7048C118.894 23.7048 118.206 24.1709 117.922 24.8914L113.533 36.0728H116.057L117.05 33.3745H122.099L123.077 36.0021L123.106 36.0728H125.793L121.354 24.849C121.078 24.1568 120.418 23.7048 119.667 23.7048ZM121.347 31.3827H117.781L119.56 26.5725L121.354 31.3827H121.347Z" fill="white"/>
<path d="M124.382 25.6896H129.126V36.0657H131.58V25.6896H136.323V23.7048H124.382V25.6896Z" fill="white"/>
<path d="M143.308 23.4858C139.16 23.4858 136.472 25.9933 136.472 29.8782C136.472 33.763 139.153 36.2917 143.308 36.2917C147.463 36.2917 150.144 33.7771 150.144 29.8782C150.144 25.9792 147.463 23.4858 143.308 23.4858ZM143.308 34.3352C140.833 34.3352 139.231 32.5834 139.231 29.8782C139.231 27.1729 140.833 25.4423 143.308 25.4423C145.783 25.4423 147.385 27.187 147.385 29.8782C147.385 32.5693 145.783 34.3352 143.308 34.3352Z" fill="white"/>
<path d="M162.404 27.3071C162.404 24.7431 160.716 23.6977 156.589 23.6977H152.399V36.0657H154.852V30.9518H156.923C157.128 30.9518 157.334 30.9518 157.532 30.9377L160.206 36.0092L160.234 36.0657H163L160.043 30.4997C161.61 29.9488 162.404 28.8752 162.404 27.3071ZM159.894 27.3212C159.894 28.5785 159.107 29.0447 156.972 29.0447H154.852V25.6119H156.901C158.795 25.6119 159.887 25.8944 159.887 27.3212H159.894Z" fill="white"/>
<path d="M165.035 25.6755H168.623V34.095H165.035V36.094H174.671V34.095H171.083V25.6755H174.671V23.6836H165.035V25.6755Z" fill="white"/>
<path d="M177.422 36.0657H187.201V34.0667H179.876V30.7046H186.633V28.7339H179.876V25.6896H187.201V23.7048H177.422V36.0657Z" fill="white"/>
<path d="M195.469 28.7339L193.895 28.4513C192.682 28.2253 192.072 27.7238 192.072 26.9468C192.072 25.845 193.476 25.4423 194.426 25.4423C195.377 25.4423 196.894 25.6754 197.291 27.2435L197.312 27.3212H199.695L199.667 27.1941C199.184 24.8066 197.362 23.4858 194.54 23.4858C192.079 23.4858 189.59 24.7007 189.59 27.0104C189.59 28.854 190.895 30.0759 193.37 30.5492L194.923 30.8317C196.107 31.0436 197.468 31.4392 197.468 32.6046C197.468 33.7701 196.142 34.3281 194.831 34.3281C193.093 34.3281 192.023 33.5158 191.647 31.9124L191.626 31.8347H189.215L189.229 31.9477C189.491 34.6248 191.604 36.2847 194.724 36.2847C197.305 36.2847 199.922 34.9779 199.922 32.4775C199.922 29.977 197.66 29.1506 195.455 28.7339H195.469Z" fill="white"/>
</g>
<defs>
<clipPath id="clip0_2120_1877">
<rect width="200" height="40" fill="white"/>
</clipPath>
</defs>
</svg>
