<svg id="egw8R53yPvV1" xmlns="http://www.w3.org/2000/svg" xmlns:xlink="http://www.w3.org/1999/xlink" viewBox="0 0 480 480" shape-rendering="geometricPrecision" text-rendering="geometricPrecision">
<style><![CDATA[
#egw8R53yPvV2_tr {animation: egw8R53yPvV2_tr__tr 3000ms linear 1 normal forwards}@keyframes egw8R53yPvV2_tr__tr { 0% {transform: translate(239.999481px,240.000992px) rotate(-360deg);animation-timing-function: cubic-bezier(0.6,0,0.4,0.995)} 100% {transform: translate(239.999481px,240.000992px) rotate(0deg)}} #egw8R53yPvV3 {animation: egw8R53yPvV3_s_do 3000ms linear 1 normal forwards}@keyframes egw8R53yPvV3_s_do { 0% {stroke-dashoffset: 1015.215664;animation-timing-function: cubic-bezier(0.6,0,0.4,0.995)} 100% {stroke-dashoffset: 0}} #egw8R53yPvV4 {animation: egw8R53yPvV4_s_do 3000ms linear 1 normal forwards}@keyframes egw8R53yPvV4_s_do { 0% {stroke-dashoffset: 1013.156337;animation-timing-function: cubic-bezier(0.6,0,0.4,0.995)} 100% {stroke-dashoffset: 0}}
]]></style>
<g id="egw8R53yPvV2_tr" transform="translate(239.999481,240.000992) rotate(-360)"><g transform="translate(-239.999481,-240.000992)"><path id="egw8R53yPvV3" d="M334.507,334.264c-12.617,12.916-19.258,31.794-19.258,55.888c0,43.716-31.461,74.848-75.374,74.848-43.912,0-75.373-31.297-75.373-74.765v-147.296c0-45.621-29.137-77.911-72.3022-77.911C49.0343,165.028,15,198.063,15,240.869s31.461,74.269,75.0415,74.269h150.0835c24.405,0,43.248-6.955,56.032-20.202" transform="translate(0 0.002)" fill="none" stroke="#003a8c" stroke-width="30" stroke-miterlimit="10" stroke-dashoffset="1015.215664" stroke-dasharray="1015.215664"/><path id="egw8R53yPvV4" d="M334.508,334.264c12.617-12.916,31.211-19.706,55.118-19.706c44.079,0,75.374-30.966,75.374-74.848s-31.212-74.848-75.291-74.848h-150.083c-40.924,0-75.705-34.112-75.705-75.0966C163.921,48.781,197.54,15,239.626,15c42.087,0,75.955,32.9531,75.955,74.8482v147.2958c0,25.087-6.641,44.544-19.424,57.792" transform="translate(-.001 0)" fill="none" stroke="#003a8c" stroke-width="30" stroke-miterlimit="10" stroke-dashoffset="1013.156337" stroke-dasharray="1013.156337"/></g></g></svg>
